<svg xmlns="http://www.w3.org/2000/svg" viewBox="0 0 16 16" width="16" height="16">
  <defs>
    <linearGradient id="cloudGrad" x1="0" y1="0" x2="0" y2="1">
      <stop offset="0%" stop-color="#4285F4"/>
      <stop offset="100%" stop-color="#1A73E8"/>
    </linearGradient>
  </defs>
  <path d="M12.5 11a3.5 3.5 0 0 0 .5-7A4.5 4.5 0 0 0 4 6.5 3 3 0 0 0 4 12.5h8a2.5 2.5 0 0 0 .5-1.5z"
        fill="url(#cloudGrad)" stroke="#174EA6" stroke-width="0.5"/>
  <g fill="none" stroke="white" stroke-width="1.2" stroke-linecap="round">
    <path d="M7,8.5 A2,2 0 0 1 9,6.5 L10,7"/>
    <path d="M9.5,7.5 A2,2 0 0 1 7.5,9.5 L6.5,8.5"/>
    <polygon points="10,6 10.5,7 9.5,7" fill="white" stroke="none"/>
    <polygon points="6.5,9 6,8 7,8" fill="white" stroke="none"/>
  </g>
</svg>
